<svg width="28" height="28" viewBox="0 0 28 28" fill="none" xmlns="http://www.w3.org/2000/svg">
<path d="M13.9999 2.5459C7.28301 2.5459 1.83789 7.99101 1.83789 14.7079C1.83789 21.4258 7.28301 26.8699 13.9999 26.8699C20.7168 26.8699 26.1619 21.4258 26.1619 14.7079C26.1619 7.99101 20.7163 2.5459 13.9999 2.5459ZM14.6973 7.47786C15.2489 6.83038 16.1819 6.35032 16.9514 6.3192C17.0496 7.2161 16.6881 8.11547 16.1547 8.76247C15.6193 9.40897 14.7437 9.91224 13.8838 9.84556C13.7683 8.96743 14.2014 8.05078 14.6973 7.47786ZM19.0766 19.7258C18.438 20.6588 17.7762 21.5882 16.7336 21.607C15.7082 21.6263 15.3783 20.9995 14.2073 20.9995C13.0353 20.9995 12.6689 21.5887 11.6984 21.6268C10.6923 21.6643 9.9258 20.6207 9.28227 19.6907C7.96605 17.7902 6.96198 14.3197 8.31227 11.9767C8.98099 10.8121 10.1792 10.0772 11.4786 10.0569C12.4683 10.0387 13.4013 10.7237 14.0048 10.7237C14.6098 10.7237 15.7438 9.90088 16.9365 10.0224C17.4354 10.0426 18.836 10.2229 19.7359 11.5391C19.6638 11.5845 18.0631 12.5155 18.0824 14.454C18.1036 16.7699 20.1137 17.5389 20.1369 17.5507C20.1182 17.6031 19.8144 18.6476 19.0766 19.7258Z" fill="#354262"/>
</svg>
