<svg width="38" height="26" viewBox="0 0 38 26" fill="none" xmlns="http://www.w3.org/2000/svg">
<rect width="38" height="26" rx="2.74286" transform="matrix(-1 0 0 1 38 0)" fill="url(#paint0_linear_948_6381)"/>
<path d="M15.8885 21.1943V20.4487H17.3454V16.5494H15.8885V15.9923C16.077 15.9809 16.2856 15.9466 16.5141 15.8895C16.7426 15.8324 16.9712 15.7552 17.1997 15.6581C17.4282 15.561 17.6368 15.4439 17.8253 15.3067H18.2453V20.4487H19.5907V21.1943H15.8885ZM20.3096 21.1943V20.9287C20.3096 20.683 20.3553 20.4573 20.4467 20.2516C20.5438 20.0402 20.6695 19.8488 20.8238 19.6774C20.9837 19.506 21.1608 19.3432 21.3551 19.189C21.5493 19.0347 21.7465 18.8861 21.9464 18.7433C22.2092 18.5548 22.4521 18.3662 22.6749 18.1777C22.8977 17.9892 23.0777 17.7863 23.2148 17.5692C23.3576 17.3521 23.429 17.1093 23.429 16.8408C23.429 16.6865 23.3919 16.5437 23.3176 16.4123C23.2491 16.2809 23.1405 16.1752 22.992 16.0952C22.8434 16.0095 22.6492 15.9666 22.4092 15.9666C22.1464 15.9666 21.9321 16.0123 21.7665 16.1038C21.6065 16.1895 21.4865 16.3094 21.4065 16.4637C21.3322 16.6122 21.2951 16.7865 21.2951 16.9865V17.3378H20.4038C20.3981 17.3093 20.3924 17.2664 20.3867 17.2093C20.381 17.1522 20.3781 17.0807 20.3781 16.995C20.3781 16.5722 20.4724 16.2323 20.6609 15.9752C20.8552 15.7124 21.1094 15.521 21.4237 15.401C21.7436 15.2753 22.0864 15.2125 22.4521 15.2125C22.8063 15.2125 23.1034 15.2639 23.3433 15.3667C23.589 15.4639 23.7833 15.5953 23.9261 15.761C24.0746 15.9266 24.1803 16.1095 24.2432 16.3094C24.3117 16.5094 24.346 16.7037 24.346 16.8922C24.346 17.1664 24.2975 17.415 24.2003 17.6378C24.1089 17.8606 23.9775 18.0691 23.8061 18.2634C23.6404 18.4576 23.4433 18.6462 23.2148 18.829C22.992 19.0061 22.752 19.1832 22.4949 19.3604C22.3349 19.4689 22.1778 19.5803 22.0236 19.6946C21.875 19.8089 21.7436 19.926 21.6293 20.046C21.5151 20.1602 21.4379 20.2716 21.3979 20.3802H24.3803V21.1943H20.3096ZM27.2537 21.2972C26.7967 21.2972 26.411 21.2258 26.0968 21.0829C25.7883 20.9401 25.5512 20.7373 25.3855 20.4745C25.2255 20.2116 25.1455 19.9031 25.1455 19.5489V19.4375H26.0454V19.566C26.0454 19.886 26.1453 20.1317 26.3453 20.3031C26.551 20.4745 26.8367 20.5602 27.2023 20.5602C27.5565 20.5602 27.8393 20.4802 28.0507 20.3202C28.2678 20.1602 28.3764 19.9031 28.3764 19.5489C28.3764 19.2918 28.3193 19.0947 28.205 18.9576C28.0907 18.8147 27.9393 18.7147 27.7508 18.6576C27.5623 18.6005 27.3623 18.5719 27.1509 18.5719H26.5938V17.8349H27.1766C27.3709 17.8349 27.548 17.8035 27.7079 17.7406C27.8736 17.6721 28.005 17.5664 28.1022 17.4235C28.205 17.275 28.2564 17.0864 28.2564 16.8579C28.2564 16.6465 28.2107 16.4751 28.1193 16.3437C28.0336 16.2123 27.9136 16.1152 27.7594 16.0523C27.6051 15.9838 27.4337 15.9495 27.2452 15.9495C27.0452 15.9495 26.8624 15.9866 26.6967 16.0609C26.5367 16.1295 26.411 16.2323 26.3196 16.3694C26.2282 16.5065 26.1825 16.6808 26.1825 16.8922V17.0207H25.2741V16.8408C25.2741 16.5151 25.3569 16.2294 25.5226 15.9838C25.694 15.7381 25.9254 15.5496 26.2168 15.4182C26.5139 15.281 26.8509 15.2125 27.228 15.2125C27.6108 15.2125 27.9479 15.2753 28.2393 15.401C28.5364 15.521 28.7649 15.701 28.9249 15.9409C29.0906 16.1752 29.1734 16.4637 29.1734 16.8065C29.1734 17.0465 29.1306 17.2521 29.0449 17.4235C28.9592 17.5949 28.842 17.7378 28.6935 17.852C28.5507 17.9663 28.3907 18.0634 28.2136 18.1434V18.1777C28.5221 18.2691 28.7792 18.4348 28.9849 18.6748C29.1963 18.9147 29.302 19.2289 29.302 19.6175C29.302 19.966 29.2134 20.2659 29.0363 20.5173C28.8649 20.7687 28.6249 20.9629 28.3164 21.1001C28.0079 21.2315 27.6537 21.2972 27.2537 21.2972ZM32.6288 21.1943V19.8146H29.9635V19.0775C30.1978 18.6776 30.412 18.2748 30.6063 17.8692C30.8005 17.4635 30.9776 17.0407 31.1376 16.6008C31.2976 16.1552 31.4319 15.6924 31.5404 15.2125H32.4745C32.4003 15.521 32.306 15.8381 32.1917 16.1637C32.0832 16.4837 31.9603 16.7979 31.8232 17.1064C31.6918 17.415 31.5604 17.7006 31.429 17.9634C31.2976 18.2263 31.1748 18.4548 31.0605 18.649C30.9462 18.8433 30.8548 18.9861 30.7862 19.0775H32.6288V17.3893C32.6688 17.2921 32.7088 17.1893 32.7488 17.0807C32.7945 16.9665 32.8373 16.8522 32.8773 16.7379C32.9173 16.618 32.9545 16.5037 32.9887 16.3951C33.023 16.2866 33.0544 16.1837 33.083 16.0866H33.5201V19.0775H34.2742V19.8146H33.5201V21.1943H32.6288Z" fill="white"/>
<defs>
<linearGradient id="paint0_linear_948_6381" x1="1.08571" y1="1.09702e-08" x2="45.2222" y2="24.3971" gradientUnits="userSpaceOnUse">
<stop stop-color="#FFB06A"/>
<stop offset="0.218992" stop-color="#AF6162"/>
<stop offset="0.411476" stop-color="#506389"/>
<stop offset="0.584675" stop-color="#0065AA"/>
<stop offset="0.631792" stop-color="#0A73B2"/>
<stop offset="0.962226" stop-color="#68FFFF"/>
</linearGradient>
</defs>
</svg>
