<svg width="58" height="24" viewBox="0 0 58 24" fill="none" xmlns="http://www.w3.org/2000/svg">
<path d="M49.5674 0C54.7304 0.000266271 58.6809 4.60026 57.9014 9.70215L56.0078 22.1104C55.8404 23.196 54.9055 24 53.8076 24H2.46484C1.1016 24 0.060569 22.7874 0.264648 21.4404L3.24902 1.88965C3.41645 0.804149 4.35049 0.000155297 5.44824 0H49.5674ZM26.1992 13.624C26.0482 14.4975 25.7551 15.1229 25.3184 15.4902C24.8816 15.8617 24.2648 16.0449 23.4648 16.0449C22.8771 16.0449 22.4277 15.9391 22.1094 15.7188C21.7952 15.4983 21.6367 15.1343 21.6367 14.6201C21.6367 14.5304 21.6409 14.4203 21.6572 14.2939C21.6735 14.1675 21.7103 13.9349 21.7715 13.6045H16.502C16.4244 14.0288 16.3713 14.3634 16.3428 14.6123C16.3142 14.8612 16.2979 15.0896 16.2979 15.3018C16.2979 16.9181 16.914 18.0897 18.1426 18.8203C19.3711 19.555 21.1383 19.9179 23.4443 19.918L23.4365 19.9141C24.9712 19.914 26.314 19.7144 27.4609 19.3145C28.6078 18.9145 29.5467 18.2533 30.2773 17.335C31.012 16.4167 31.5097 15.188 31.7832 13.6494L33.4814 4.08203H27.873L26.1992 13.624ZM6.01172 8.35938H10.0322L8.04004 19.6455H13.6279L15.6201 8.35938H24.8076L25.5547 4.08594H6.75879L6.01172 8.35938ZM35.7217 4.08594L32.9873 19.6445H38.5674L39.4238 14.7832H44.5137L46.0078 19.6445H52.0693L50.0566 14.0371C50.8403 13.7024 51.4979 13.2568 52.0244 12.6895C52.5549 12.1263 52.9553 11.473 53.2246 10.7344C53.4979 9.99578 53.6318 9.20403 53.6318 8.35938C53.6318 7.5757 53.4567 6.86089 53.1016 6.21191C52.7506 5.56317 52.2121 5.04473 51.498 4.66113C50.7838 4.27749 49.8651 4.08597 48.751 4.08594H35.7217ZM46.5547 7.95117C46.9302 7.95117 47.2361 8.04924 47.4688 8.24512C47.7014 8.44104 47.8203 8.75144 47.8203 9.12695C47.8202 9.50228 47.73 9.82073 47.5586 10.0859C47.3872 10.3511 47.1669 10.5554 46.8936 10.6982C46.6242 10.8411 46.3381 10.9141 46.0361 10.9141H40.1094L40.6279 7.95117H46.5547Z" fill="white"/>
</svg>
