<svg width="111" height="38" viewBox="0 0 111 38" fill="none" xmlns="http://www.w3.org/2000/svg">
<g clip-path="url(#clip0_951_8256)">
<path d="M0.0390625 14.6472C2.44222 5.00322 12.209 -0.866357 21.8506 1.53784C31.4942 3.94211 37.362 13.7109 34.958 23.3542C32.5538 32.9974 22.7867 38.8664 13.1426 36.4617C3.50213 34.0574 -2.36623 24.2898 0.0390625 14.6472Z" fill="#FE8701" stroke="#F7F8FA" stroke-width="2"/>
<path d="M24.9907 16.5782C25.3291 14.3161 23.6068 13.1001 21.2518 12.2889L22.0157 9.22462L20.1505 8.75977L19.4068 11.7433C18.9164 11.6211 18.4128 11.5058 17.9123 11.3916L18.6614 8.38843L16.7972 7.92358L16.0328 10.9868C15.6269 10.8943 15.2285 10.803 14.8417 10.7068L14.8438 10.6972L12.2715 10.055L11.7753 12.0471C11.7753 12.0471 13.1593 12.3643 13.13 12.384C13.8855 12.5726 14.022 13.0725 13.9992 13.4688L13.129 16.9596C13.181 16.9729 13.2485 16.992 13.3229 17.0218C13.2607 17.0064 13.1943 16.9894 13.1258 16.9729L11.906 21.8631C11.8136 22.0926 11.5793 22.4368 11.0512 22.3061C11.0698 22.3332 9.6955 21.9677 9.6955 21.9677L8.76953 24.1028L11.1968 24.7079C11.6484 24.8211 12.0909 24.9395 12.5265 25.0511L11.7546 28.1504L13.6177 28.6152L14.3822 25.5489C14.8911 25.687 15.3852 25.8145 15.8686 25.9346L15.1068 28.9866L16.972 29.4514L17.7439 26.358C20.9245 26.9599 23.3162 26.7171 24.3229 23.8404C25.1342 21.5241 24.2826 20.188 22.6091 19.3168C23.8278 19.0357 24.7458 18.2341 24.9907 16.5782ZM20.729 22.5542C20.1526 24.8705 16.2527 23.6183 14.9883 23.3043L16.0126 19.1983C17.277 19.5139 21.3315 20.1386 20.729 22.5542ZM21.306 16.5447C20.78 18.6516 17.5341 17.5812 16.4812 17.3187L17.4098 13.5947C18.4627 13.8571 21.8537 14.3469 21.306 16.5447Z" fill="white"/>
</g>
<g clip-path="url(#clip1_951_8256)">
<path d="M43.5 1C53.4411 1 61.5 9.05887 61.5 19C61.5 28.9411 53.4411 37 43.5 37C33.5589 37 25.5 28.9411 25.5 19C25.5 9.05887 33.5589 1 43.5 1Z" fill="#627EEA" stroke="#F7F8FA" stroke-width="2"/>
<path d="M44.0293 6.25V15.6744L51.9949 19.2337L44.0293 6.25Z" fill="white" fill-opacity="0.602"/>
<path d="M44.0291 6.25L36.0625 19.2337L44.0291 15.6744V6.25Z" fill="white"/>
<path d="M44.0293 25.341V31.7447L52.0002 20.717L44.0293 25.341Z" fill="white" fill-opacity="0.602"/>
<path d="M44.0291 31.7447V25.34L36.0625 20.717L44.0291 31.7447Z" fill="white"/>
<path d="M44.0293 23.8591L51.9949 19.234L44.0293 15.6768V23.8591Z" fill="white" fill-opacity="0.2"/>
<path d="M36.0625 19.234L44.0291 23.8591V15.6768L36.0625 19.234Z" fill="white" fill-opacity="0.602"/>
</g>
<circle cx="67.5" cy="19" r="18" fill="#EC0024" stroke="#F7F8FA" stroke-width="2"/>
<path d="M77.6602 17.5601C77.6602 17.4901 77.6602 17.4901 77.7302 17.4901C77.7302 17.4901 77.7302 17.4901 77.7302 17.4201C77.7302 17.4201 77.7302 17.4201 77.7302 17.3501C77.7302 17.3501 77.7302 17.3501 77.7302 17.2801C77.7302 17.2801 77.7302 17.2801 77.7302 17.2101C77.7302 17.2101 77.7302 17.2101 77.7302 17.1401C77.7302 17.1401 77.7302 17.1401 77.7302 17.0701C77.7302 17.0701 77.7302 17.0701 77.7302 17.0001C77.7302 17.0001 77.7302 17.0001 77.7302 16.9301C77.7302 16.9301 77.7302 16.9301 77.7302 16.8601L74.0202 13.4301L73.9502 13.3601C73.8802 13.3601 73.8802 13.3601 73.8102 13.2901L58.8302 10.8401H58.7602C58.6902 10.8401 58.6902 10.8401 58.6202 10.8401C58.6202 10.8401 58.5502 10.8401 58.5502 10.9101L58.4802 10.9801L58.4102 11.0501V11.1201C58.4102 11.1901 58.4102 11.1901 58.4102 11.2601V11.3301L66.3202 29.6701C66.3202 29.6701 66.3202 29.7401 66.3902 29.7401L66.4602 29.8101C66.4602 29.8101 66.5302 29.8101 66.5302 29.8801H66.6002H66.6702H66.7402H66.8102C66.8102 29.8801 66.8102 29.8801 66.8802 29.8801C66.8802 29.8801 66.9502 29.8801 66.9502 29.8101L77.6602 17.5601ZM59.8102 12.8001L67.7902 18.9601L66.3902 28.0601L59.8102 12.8001ZM76.2602 17.0701L69.6802 18.1201L73.6002 14.5501L76.2602 17.0701ZM68.2802 18.1901L60.4402 12.1001L72.6202 14.2001L68.2802 18.1901ZM68.7002 19.1701L76.1202 17.9801L67.3002 28.2001L68.7002 19.1701Z" fill="white"/>
<circle cx="91.5" cy="19" r="18" fill="#FFD02B" stroke="#F7F8FA" stroke-width="2"/>
<path d="M97.1365 22.2541V19.717L95.0728 20.9074V23.4464L97.1365 22.2541Z" fill="white"/>
<path d="M97.1367 15.7458L94.9958 14.5088L91.5 16.5279L88.0042 14.5088L85.8633 15.7458V17.9944L89.418 20.048V24.3075L91.5 25.51L93.582 24.3075V20.048L97.1367 17.9944V15.7458Z" fill="white"/>
<path d="M100.712 15.9307V13.6821L98.5709 12.4451L96.4868 13.6476L98.6278 14.8846V17.1332L100.712 15.9307Z" fill="white"/>
<path d="M84.3721 17.1332V14.8846L86.5131 13.6476L84.429 12.4451L82.2881 13.6821V15.9307L84.3721 17.1332Z" fill="white"/>
<path d="M85.8633 22.2541L87.927 23.4464V20.9074L85.8633 19.717V22.2541Z" fill="white"/>
<path d="M93.582 26.0303L91.5 27.2328L89.418 26.0303V28.4353L91.5 29.6378L93.582 28.4353V26.0303Z" fill="white"/>
<path d="M93.5048 13.6476L91.5 12.4897L89.4951 13.6476L91.5 14.8054L93.5048 13.6476Z" fill="white"/>
<path d="M98.6274 18.8558V23.1154L95.0728 25.1689V27.5739L100.712 24.3179V17.6533L98.6274 18.8558Z" fill="white"/>
<path d="M87.9268 25.1689L84.3721 23.1154V18.8558L82.2881 17.6533V24.3179L87.9268 27.5739V25.1689Z" fill="white"/>
<path d="M88.004 12.7864L91.4998 10.7693L94.9955 12.7864L97.0796 11.5839L91.4998 8.3623L85.9199 11.5839L88.004 12.7864Z" fill="white"/>
<defs>
<clipPath id="clip0_951_8256">
<rect width="34" height="34" fill="white" transform="translate(0.5 2)"/>
</clipPath>
<clipPath id="clip1_951_8256">
<rect width="36" height="34" fill="white" transform="translate(24.5 2)"/>
</clipPath>
</defs>
</svg>
