<svg width="148" height="19" viewBox="0 0 148 19" fill="none" xmlns="http://www.w3.org/2000/svg">
<path d="M57.12 16L55.536 7.6H56.52L57.852 14.98H58.092L62.04 7.6H63.096L58.56 16H57.12ZM62.7047 16L63.7607 10H64.6607L63.6047 16H62.7047ZM63.9167 8.74L64.0967 7.72H65.1167L64.9367 8.74H63.9167ZM65.172 14.26H66.072V14.32C66.072 14.584 66.204 14.812 66.468 15.004C66.74 15.188 67.116 15.28 67.596 15.28C68.076 15.28 68.436 15.188 68.676 15.004C68.916 14.812 69.036 14.584 69.036 14.32C69.036 13.864 68.724 13.58 68.1 13.468L67.284 13.324C66.268 13.148 65.76 12.64 65.76 11.8C65.76 11.24 65.956 10.78 66.348 10.42C66.74 10.06 67.296 9.88 68.016 9.88C68.744 9.88 69.312 10.056 69.72 10.408C70.128 10.76 70.332 11.164 70.332 11.62V11.74H69.432V11.68C69.432 11.424 69.3 11.2 69.036 11.008C68.772 10.816 68.412 10.72 67.956 10.72C67.532 10.72 67.208 10.816 66.984 11.008C66.768 11.192 66.66 11.416 66.66 11.68C66.66 12.088 66.96 12.352 67.56 12.472L68.34 12.616C69.404 12.816 69.936 13.344 69.936 14.2C69.936 14.752 69.732 15.212 69.324 15.58C68.924 15.94 68.328 16.12 67.536 16.12C66.816 16.12 66.24 15.948 65.808 15.604C65.384 15.252 65.172 14.824 65.172 14.32V14.26ZM74.7595 16V15.28H74.6995C74.5475 15.456 74.3955 15.596 74.2435 15.7C73.8755 15.98 73.4275 16.12 72.8995 16.12C72.2675 16.12 71.7755 15.96 71.4235 15.64C71.0715 15.312 70.8955 14.912 70.8955 14.44C70.8955 13.8 71.1035 13.292 71.5195 12.916C71.9355 12.532 72.5155 12.34 73.2595 12.34H75.2755L75.2875 12.292C75.3115 12.172 75.3235 12.048 75.3235 11.92C75.3235 11.552 75.2035 11.26 74.9635 11.044C74.7315 10.828 74.4035 10.72 73.9795 10.72C73.5475 10.72 73.1955 10.82 72.9235 11.02C72.6515 11.212 72.4915 11.452 72.4435 11.74H71.5435C71.6315 11.22 71.8915 10.78 72.3235 10.42C72.7555 10.06 73.3275 9.88 74.0395 9.88C74.7115 9.88 75.2435 10.052 75.6355 10.396C76.0355 10.732 76.2355 11.196 76.2355 11.788C76.2355 11.972 76.2195 12.144 76.1875 12.304L75.5395 16H74.7595ZM75.0715 13.516L75.1315 13.18H73.2595C72.7715 13.18 72.4035 13.292 72.1555 13.516C71.9155 13.732 71.7955 14.02 71.7955 14.38C71.7955 14.652 71.9035 14.872 72.1195 15.04C72.3355 15.2 72.6355 15.28 73.0195 15.28C73.5955 15.28 74.0555 15.12 74.3995 14.8C74.7515 14.472 74.9755 14.044 75.0715 13.516ZM80.1084 16L81.5844 7.6H86.9844L86.8284 8.5H82.3884L81.8844 11.32H86.0844L85.9284 12.22H81.7284L81.2244 15.1H85.6644L85.5084 16H80.1084ZM86.228 16L88.796 12.94L87.344 10H88.364L89.456 12.28H89.696L91.604 10H92.744L90.236 12.94L91.748 16H90.728L89.588 13.6H89.348L87.368 16H86.228ZM92.2713 18.4L93.7473 10H94.5273L94.5033 10.84H94.5633C95.0273 10.2 95.6753 9.88 96.5073 9.88C97.2193 9.88 97.7953 10.128 98.2353 10.624C98.6833 11.112 98.9073 11.728 98.9073 12.472C98.9073 13.536 98.5873 14.412 97.9473 15.1C97.3153 15.78 96.5753 16.12 95.7273 16.12C94.9033 16.12 94.2713 15.78 93.8313 15.1H93.7713L93.1713 18.4H92.2713ZM95.7873 15.28C96.3553 15.28 96.8673 15.028 97.3233 14.524C97.7793 14.02 98.0073 13.392 98.0073 12.64C98.0073 12.048 97.8513 11.58 97.5393 11.236C97.2273 10.892 96.8113 10.72 96.2913 10.72C95.7153 10.72 95.1993 10.972 94.7433 11.476C94.2953 11.98 94.0713 12.608 94.0713 13.36C94.0713 13.952 94.2273 14.42 94.5393 14.764C94.8513 15.108 95.2673 15.28 95.7873 15.28ZM99.6642 16L100.72 10H101.5V10.54H101.56C101.864 10.18 102.232 10 102.664 10H103.84L103.684 10.84H102.664C101.872 10.84 101.396 11.28 101.236 12.16L100.564 16H99.6642ZM108.101 14.32H109.061C108.445 15.52 107.561 16.12 106.409 16.12C105.625 16.12 104.985 15.876 104.489 15.388C104.001 14.9 103.757 14.264 103.757 13.48C103.757 12.432 104.077 11.572 104.717 10.9C105.365 10.22 106.125 9.88 106.997 9.88C107.725 9.88 108.325 10.116 108.797 10.588C109.269 11.052 109.505 11.656 109.505 12.4C109.505 12.744 109.453 13.084 109.349 13.42H104.621C104.621 13.98 104.781 14.432 105.101 14.776C105.429 15.112 105.865 15.28 106.409 15.28C106.777 15.28 107.109 15.196 107.405 15.028C107.709 14.86 107.941 14.624 108.101 14.32ZM104.729 12.58H108.605C108.605 12.012 108.449 11.56 108.137 11.224C107.833 10.888 107.437 10.72 106.949 10.72C106.405 10.72 105.933 10.892 105.533 11.236C105.141 11.572 104.873 12.02 104.729 12.58ZM110.055 14.26H110.955V14.32C110.955 14.584 111.087 14.812 111.351 15.004C111.623 15.188 111.999 15.28 112.479 15.28C112.959 15.28 113.319 15.188 113.559 15.004C113.799 14.812 113.919 14.584 113.919 14.32C113.919 13.864 113.607 13.58 112.983 13.468L112.167 13.324C111.151 13.148 110.643 12.64 110.643 11.8C110.643 11.24 110.839 10.78 111.231 10.42C111.623 10.06 112.179 9.88 112.899 9.88C113.627 9.88 114.195 10.056 114.603 10.408C115.011 10.76 115.215 11.164 115.215 11.62V11.74H114.315V11.68C114.315 11.424 114.183 11.2 113.919 11.008C113.655 10.816 113.295 10.72 112.839 10.72C112.415 10.72 112.091 10.816 111.867 11.008C111.651 11.192 111.543 11.416 111.543 11.68C111.543 12.088 111.843 12.352 112.443 12.472L113.223 12.616C114.287 12.816 114.819 13.344 114.819 14.2C114.819 14.752 114.615 15.212 114.207 15.58C113.807 15.94 113.211 16.12 112.419 16.12C111.699 16.12 111.123 15.948 110.691 15.604C110.267 15.252 110.055 14.824 110.055 14.32V14.26ZM115.574 14.26H116.474V14.32C116.474 14.584 116.606 14.812 116.87 15.004C117.142 15.188 117.518 15.28 117.998 15.28C118.478 15.28 118.838 15.188 119.078 15.004C119.318 14.812 119.438 14.584 119.438 14.32C119.438 13.864 119.126 13.58 118.502 13.468L117.686 13.324C116.67 13.148 116.162 12.64 116.162 11.8C116.162 11.24 116.358 10.78 116.75 10.42C117.142 10.06 117.698 9.88 118.418 9.88C119.146 9.88 119.714 10.056 120.122 10.408C120.53 10.76 120.734 11.164 120.734 11.62V11.74H119.834V11.68C119.834 11.424 119.702 11.2 119.438 11.008C119.174 10.816 118.814 10.72 118.358 10.72C117.934 10.72 117.61 10.816 117.386 11.008C117.17 11.192 117.062 11.416 117.062 11.68C117.062 12.088 117.362 12.352 117.962 12.472L118.742 12.616C119.806 12.816 120.338 13.344 120.338 14.2C120.338 14.752 120.134 15.212 119.726 15.58C119.326 15.94 118.73 16.12 117.938 16.12C117.218 16.12 116.642 15.948 116.21 15.604C115.786 15.252 115.574 14.824 115.574 14.32V14.26ZM128.648 14.02H129.584C129.04 15.42 128.104 16.12 126.776 16.12C126.008 16.12 125.38 15.876 124.892 15.388C124.404 14.9 124.16 14.264 124.16 13.48C124.16 12.432 124.484 11.572 125.132 10.9C125.78 10.22 126.536 9.88 127.4 9.88C128.088 9.88 128.648 10.06 129.08 10.42C129.512 10.78 129.772 11.28 129.86 11.92H128.972C128.908 11.552 128.732 11.26 128.444 11.044C128.156 10.828 127.792 10.72 127.352 10.72C126.752 10.72 126.22 10.968 125.756 11.464C125.292 11.96 125.06 12.6 125.06 13.384C125.06 13.96 125.228 14.42 125.564 14.764C125.9 15.108 126.32 15.28 126.824 15.28C127.232 15.28 127.6 15.168 127.928 14.944C128.264 14.712 128.504 14.404 128.648 14.02ZM134.349 16V15.28H134.289C134.137 15.456 133.985 15.596 133.833 15.7C133.465 15.98 133.017 16.12 132.489 16.12C131.857 16.12 131.365 15.96 131.013 15.64C130.661 15.312 130.485 14.912 130.485 14.44C130.485 13.8 130.693 13.292 131.109 12.916C131.525 12.532 132.105 12.34 132.849 12.34H134.865L134.877 12.292C134.901 12.172 134.913 12.048 134.913 11.92C134.913 11.552 134.793 11.26 134.553 11.044C134.321 10.828 133.993 10.72 133.569 10.72C133.137 10.72 132.785 10.82 132.513 11.02C132.241 11.212 132.081 11.452 132.033 11.74H131.133C131.221 11.22 131.481 10.78 131.913 10.42C132.345 10.06 132.917 9.88 133.629 9.88C134.301 9.88 134.833 10.052 135.225 10.396C135.625 10.732 135.825 11.196 135.825 11.788C135.825 11.972 135.809 12.144 135.777 12.304L135.129 16H134.349ZM134.661 13.516L134.721 13.18H132.849C132.361 13.18 131.993 13.292 131.745 13.516C131.505 13.732 131.385 14.02 131.385 14.38C131.385 14.652 131.493 14.872 131.709 15.04C131.925 15.2 132.225 15.28 132.609 15.28C133.185 15.28 133.645 15.12 133.989 14.8C134.341 14.472 134.565 14.044 134.661 13.516ZM136.813 16L137.869 10H138.649V10.54H138.709C139.013 10.18 139.381 10 139.813 10H140.989L140.833 10.84H139.813C139.021 10.84 138.545 11.28 138.385 12.16L137.713 16H136.813ZM145.286 16L145.31 15.16H145.25C144.786 15.8 144.138 16.12 143.306 16.12C142.594 16.12 142.014 15.876 141.566 15.388C141.126 14.892 140.906 14.272 140.906 13.528C140.906 12.464 141.222 11.592 141.854 10.912C142.494 10.224 143.238 9.88 144.086 9.88C144.91 9.88 145.542 10.22 145.982 10.9H146.042L146.642 7.6H147.542L146.066 16H145.286ZM143.522 15.28C144.09 15.28 144.602 15.028 145.058 14.524C145.514 14.02 145.742 13.392 145.742 12.64C145.742 12.048 145.586 11.58 145.274 11.236C144.962 10.892 144.546 10.72 144.026 10.72C143.45 10.72 142.934 10.972 142.478 11.476C142.03 11.98 141.806 12.608 141.806 13.36C141.806 13.952 141.962 14.42 142.274 14.764C142.586 15.108 143.002 15.28 143.522 15.28Z" fill="white"/>
<path d="M20.7176 0.307617L17.333 15.8974H21.4356L24.7176 0.307617H20.7176Z" fill="white"/>
<path d="M14.7693 0.307617L10.5641 10.8717L8.8205 1.84608C8.61537 0.820439 7.79487 0.307617 6.97436 0.307617H0.102539L0 0.717899C1.4359 1.02559 2.97439 1.5384 4.00003 2.05122C4.61542 2.35892 4.71794 2.6666 4.92307 3.38455L8.1026 15.7949H12.4103L18.9744 0.205078H14.7693V0.307617Z" fill="white"/>
<path d="M46.6668 0.307617H43.1796C42.3591 0.307617 41.7438 0.717912 41.4361 1.43586L35.3848 15.8974H39.5899L40.4104 13.5384H45.5387L46.0515 15.8974H49.7438L46.6668 0.307617ZM41.7438 10.3589L43.8976 4.51279L45.1284 10.3589H41.7438Z" fill="white"/>
<path d="M30.0513 4.61539C30.0513 4.10257 30.5641 3.4872 31.7949 3.28207C32.4102 3.1795 33.9487 3.17952 35.7949 4.00003L36.5128 0.717962C35.5897 0.41027 34.2564 0 32.718 0C28.718 0 25.9487 2.15385 25.9487 5.12821C25.9487 7.38463 28 8.61537 29.4359 9.33332C30.9744 10.0513 31.4872 10.5641 31.4872 11.2821C31.4872 12.3077 30.2564 12.8205 29.0256 12.8205C26.9743 12.8205 25.8461 12.3077 24.923 11.7949L24.2051 15.1795C25.1282 15.5898 26.8718 16 28.7179 16C32.9231 16 35.6923 13.9488 35.6923 10.6667C35.6923 6.76927 29.9487 6.46155 30.0513 4.61539Z" fill="white"/>
</svg>
