<svg width="50" height="16" viewBox="0 0 50 16" fill="none" xmlns="http://www.w3.org/2000/svg">
<path d="M20.7176 0.307617L17.333 15.8974H21.4356L24.7176 0.307617H20.7176Z" fill="white"/>
<path d="M14.7693 0.307617L10.5641 10.8717L8.8205 1.84608C8.61537 0.820439 7.79487 0.307617 6.97436 0.307617H0.102539L0 0.717899C1.4359 1.02559 2.97439 1.5384 4.00003 2.05122C4.61542 2.35892 4.71794 2.6666 4.92307 3.38455L8.1026 15.7949H12.4103L18.9744 0.205078H14.7693V0.307617Z" fill="white"/>
<path d="M46.6668 0.307617H43.1796C42.3591 0.307617 41.7438 0.717912 41.4361 1.43586L35.3848 15.8974H39.5899L40.4104 13.5384H45.5387L46.0515 15.8974H49.7438L46.6668 0.307617ZM41.7438 10.3589L43.8976 4.51279L45.1284 10.3589H41.7438Z" fill="white"/>
<path d="M30.0513 4.61539C30.0513 4.10257 30.5641 3.4872 31.7949 3.28207C32.4102 3.1795 33.9487 3.17952 35.7949 4.00003L36.5128 0.717962C35.5897 0.41027 34.2564 0 32.718 0C28.718 0 25.9487 2.15385 25.9487 5.12821C25.9487 7.38463 28 8.61537 29.4359 9.33332C30.9744 10.0513 31.4872 10.5641 31.4872 11.2821C31.4872 12.3077 30.2564 12.8205 29.0256 12.8205C26.9743 12.8205 25.8461 12.3077 24.923 11.7949L24.2051 15.1795C25.1282 15.5898 26.8718 16 28.7179 16C32.9231 16 35.6923 13.9488 35.6923 10.6667C35.6923 6.76927 29.9487 6.46155 30.0513 4.61539Z" fill="white"/>
</svg>
